<?xml version="1.0" encoding="utf-8"?><svg xmlns="http://www.w3.org/2000/svg" xmlns:xlink="http://www.w3.org/1999/xlink"><symbol viewBox="0 0 512.076 512.076" id="call" xmlns="http://www.w3.org/2000/svg"><path d="M498.639 395.039l-103.646-69.12c-13.153-8.701-30.784-5.838-40.508 6.579l-30.191 38.818a12.903 12.903 0 0 1-16.546 3.482l-5.743-3.166c-19.038-10.377-42.726-23.296-90.453-71.04s-60.672-71.45-71.049-90.453l-3.149-5.743a12.92 12.92 0 0 1 3.413-16.606l38.792-30.182c12.412-9.725 15.279-27.351 6.588-40.508l-69.12-103.646C108.12.056 90.25-3.966 76.461 4.323L33.12 30.358A61.136 61.136 0 0 0 5.242 66.539c-15.607 56.866-3.866 155.008 140.706 299.597 115.004 114.995 200.619 145.92 259.465 145.92a151.181 151.181 0 0 0 40.107-5.239 61.079 61.079 0 0 0 36.181-27.878l26.061-43.315c8.301-13.792 4.281-31.673-9.123-40.585zm-5.581 31.829l-26.001 43.341a44.103 44.103 0 0 1-26.027 20.173c-52.497 14.413-144.213 2.475-283.008-136.32S7.29 123.559 21.703 71.054a44.17 44.17 0 0 1 20.198-26.061l43.341-26.001c5.983-3.6 13.739-1.855 17.604 3.959l37.547 56.371 31.514 47.266c3.774 5.707 2.534 13.356-2.85 17.579l-38.801 30.182c-11.808 9.029-15.18 25.366-7.91 38.332l3.081 5.598c10.906 20.002 24.465 44.885 73.967 94.379 49.502 49.493 74.377 63.053 94.37 73.958l5.606 3.089c12.965 7.269 29.303 3.898 38.332-7.91l30.182-38.801c4.224-5.381 11.87-6.62 17.579-2.85l103.637 69.12c5.818 3.862 7.563 11.622 3.958 17.604zM290.161 85.39c80.081.089 144.977 64.986 145.067 145.067 0 4.713 3.82 8.533 8.533 8.533s8.533-3.82 8.533-8.533c-.099-89.503-72.63-162.035-162.133-162.133-4.713 0-8.533 3.82-8.533 8.533s3.82 8.533 8.533 8.533z"/><path d="M290.161 136.59c51.816.061 93.806 42.051 93.867 93.867a8.533 8.533 0 0 0 17.066 0c-.071-61.238-49.696-110.863-110.933-110.933-4.713 0-8.533 3.82-8.533 8.533s3.82 8.533 8.533 8.533z"/><path d="M290.161 187.79c23.552.028 42.638 19.114 42.667 42.667a8.533 8.533 0 0 0 17.066 0c-.038-32.974-26.759-59.696-59.733-59.733-4.713 0-8.533 3.82-8.533 8.533s3.82 8.533 8.533 8.533z"/></symbol><symbol viewBox="0 0 344.96 344.96" id="check" xmlns="http://www.w3.org/2000/svg"><g data-name="Слой 2"><path d="M321.85 86.24l-40-23.11-23.1-40H212.5L172.48 0l-40 23.11H86.24l-23.11 40-40 23.1v46.21L0 172.48l23.11 40v46.21l40 23.11 23.11 40h46.21l40 23.1 40-23.11h46.21l23.11-40 40-23.11V212.5l23.11-40-23.11-40V86.24zM156.91 243.07a16.79 16.79 0 0 1-23.34 0l-50.45-50.44a16.19 16.19 0 0 1 0-22.89l13.35-13.35a16.19 16.19 0 0 1 22.89 0l25.87 25.87 80.34-80.35a16.19 16.19 0 0 1 22.89 0l13.35 13.35a16.19 16.19 0 0 1 0 22.89z" data-name="Capa 1"/></g></symbol><symbol viewBox="0 0 31.012 31.012" id="mail" xmlns="http://www.w3.org/2000/svg"><path d="M25.109 21.51a.495.495 0 0 1-.342-.136l-5.754-5.398a.5.5 0 1 1 .685-.728l5.754 5.398a.5.5 0 0 1-.343.864zm-19.207 0a.5.5 0 0 1-.343-.864l5.756-5.398a.5.5 0 0 1 .685.728l-5.756 5.398a.495.495 0 0 1-.342.136z"/><path d="M28.512 26.529H2.5a2.503 2.503 0 0 1-2.5-2.5V6.982c0-1.379 1.122-2.5 2.5-2.5h26.012c1.378 0 2.5 1.121 2.5 2.5v17.047c0 1.379-1.122 2.5-2.5 2.5zM2.5 5.482c-.827 0-1.5.673-1.5 1.5v17.047c0 .827.673 1.5 1.5 1.5h26.012c.827 0 1.5-.673 1.5-1.5V6.982c0-.827-.673-1.5-1.5-1.5H2.5z"/><path d="M15.506 18.018c-.665 0-1.33-.221-1.836-.662L.83 6.155a.501.501 0 0 1-.049-.706.503.503 0 0 1 .706-.048l12.84 11.2c.639.557 1.719.557 2.357 0L29.508 5.419a.5.5 0 0 1 .658.754L17.342 17.355c-.507.442-1.171.663-1.836.663z"/></symbol><symbol viewBox="0 0 512 512" id="phone" xmlns="http://www.w3.org/2000/svg"><path d="M256 32c123.5 0 224 100.5 224 224S379.5 480 256 480 32 379.5 32 256 132.5 32 256 32zm0-32C114.625 0 0 114.625 0 256s114.625 256 256 256 256-114.625 256-256S397.375 0 256 0zm142.719 341.594l-1.438-4.375c-3.375-10.062-14.5-20.562-24.75-23.375L334.688 303.5c-10.25-2.781-24.875.969-32.405 8.5l-13.688 13.688c-49.75-13.469-88.781-52.5-102.219-102.25l13.688-13.688c7.5-7.5 11.25-22.125 8.469-32.406L198.219 139.5c-2.781-10.25-13.344-21.375-23.406-24.75l-4.313-1.438c-10.094-3.375-24.5.031-32 7.563l-20.5 20.5c-3.656 3.625-6 14.031-6 14.063-.688 65.063 24.813 127.719 70.813 173.75 45.875 45.875 108.313 71.345 173.156 70.781.344 0 11.063-2.281 14.719-5.938l20.5-20.5c7.5-7.469 10.874-21.875 7.531-31.937z"/></symbol><symbol viewBox="0 0 61.168 61.168" id="placeholder" xmlns="http://www.w3.org/2000/svg"><path d="M30.938 26.584c3.859 0 7-3.141 7-7s-3.141-7-7-7-7 3.141-7 7 3.14 7 7 7zm0-12c2.757 0 5 2.243 5 5s-2.243 5-5 5-5-2.243-5-5 2.243-5 5-5z"/><path d="M50.216 37.584h-7.161l3.047-4.4c5.755-7.671 4.922-20.28-1.781-26.982A19.049 19.049 0 0 0 30.761.585a19.052 19.052 0 0 0-13.56 5.617c-6.703 6.702-7.536 19.312-1.804 26.952l3.068 4.431h-7.513L0 60.584h61.168l-10.952-23zm-33.196-5.6c-5.199-6.933-4.454-18.32 1.596-24.369 3.244-3.244 7.558-5.031 12.146-5.031s8.901 1.787 12.146 5.031c6.05 6.049 6.795 17.437 1.573 24.399l-13.72 19.813-9.863-14.243-3.878-5.6zm-4.804 7.6h7.634l10.911 15.757 10.91-15.757h7.281l9.048 19H3.168l9.048-19z"/></symbol><symbol viewBox="0 0 443.294 443.294" id="time" xmlns="http://www.w3.org/2000/svg"><path d="M221.647 0C99.433 0 0 99.433 0 221.647s99.433 221.647 221.647 221.647 221.647-99.433 221.647-221.647S343.861 0 221.647 0zm0 415.588c-106.941 0-193.941-87-193.941-193.941s87-193.941 193.941-193.941 193.941 87 193.941 193.941-87 193.941-193.941 193.941z"/><path d="M235.5 83.118h-27.706v144.265l87.176 87.176 19.589-19.589-79.059-79.059z"/></symbol></svg>